<?xml version="1.0" encoding="utf-8"?>
<!-- Generator: Adobe Illustrator 27.0.0, SVG Export Plug-In . SVG Version: 6.00 Build 0)  -->
<svg version="1.1" id="Layer_1" xmlns="http://www.w3.org/2000/svg" xmlns:xlink="http://www.w3.org/1999/xlink" x="0px" y="0px"
	 viewBox="0 0 512 512" style="enable-background:new 0 0 512 512;" xml:space="preserve">
<style type="text/css">
	.st0{fill:#3C4F88;}
	.st1{fill:#00A4B2;}
</style>
<g>
	<path class="st0" d="M345.7,281.4c-14.1,0-26.8,5.7-36,14.9c-9.2,9.2-14.9,21.9-14.9,36c0,28.1,22.8,50.9,51,50.9h156V281.4H345.7z
		 M354.1,353.9c-11.9,0-21.5-9.7-21.5-21.5c0-11.9,9.7-21.5,21.5-21.5c11.9,0,21.5,9.7,21.5,21.5C375.6,344.2,366,353.9,354.1,353.9
		z"/>
	<path class="st1" d="M283,292.6c-7.6,11.3-12.1,25-12.1,39.7c0,14.7,4.4,28.4,12.1,39.8c12.8,19.1,34.6,31.6,59.3,31.6h140v78.1
		c0,14.3-11.6,25.9-25.9,25.9H201.1c-14.5,0-29-0.1-43.4-0.4c-36.8-0.7-58.7-40.5-38.8-71.1c16.4-25.3,34.6-49.5,53.2-75.8
		c14.2,24.2,27.5,46.7,41.9,71.1c4.4-9.2,8-16.5,11.7-24.3c-10.1-26.5-20.1-52.8-30.3-79.7c11-15.7,22.1-31.2,33-46.9
		c8.3-11.9,7.6-22.3-1.7-29.3c-9.5-7.1-20.2-4.2-29,8.1c-11.1,15.5-22.2,31.1-34.4,48.1H81.2c-6.7,7.3-12.3,13.4-19.6,21.4
		c26.7,4,51.3,7.6,76.9,11.5c-4.4,10.3-11.4,17.7-17.1,26c-8.6,12.6-17.5,25.1-26.6,37.4c-12.5,17-32.4,23.5-51.8,17.4
		c-19.5-6.1-32.4-22.7-32.5-43.8c-0.2-30.8-0.2-61.6-0.2-92.5v-128h446.1c14.3,0,25.9,11.6,25.9,25.9V261h-140
		c-19.7,0-37.5,8-50.5,20.9C288.5,285.1,285.6,288.8,283,292.6z"/>
	<g>
		<g>
			<g>
				<path class="st0" d="M10.3,150.7l300.6-71.8l-33.4-58c-9.2-16-29.8-21.4-45.7-12L10.3,150.7z"/>
			</g>
			<g>
				<path class="st0" d="M58,147.5h336.3l-9.3-43.7c-3.4-16-19.3-26.1-35.2-22.5L58,147.5z"/>
			</g>
		</g>
	</g>
</g>
</svg>
